<?xml version="1.0" encoding="utf-8"?>
<!-- Generator: Adobe Illustrator 23.0.4, SVG Export Plug-In . SVG Version: 6.00 Build 0)  -->
<svg version="1.1" id="Layer_1" xmlns="http://www.w3.org/2000/svg" xmlns:xlink="http://www.w3.org/1999/xlink" x="0px" y="0px"
	 viewBox="0 0 612 612" style="enable-background:new 0 0 612 612;" xml:space="preserve">
<style type="text/css">
	.st0{fill:#8C4300;}
</style>
<title>Artboard 1</title>
<path class="st0" d="M503.6,412.7c-4.4,8-9.2,15.7-14.4,23.2c-4.8,7-10.1,13.6-15.9,19.9c-6.1,6.7-12.5,13.1-19.3,19.1
	c-3.4,3-6.9,5.9-10.4,8.7c-0.3,0.2-2.2,1.7-0.4,0.3l-2.3,1.7c-2.3,1.7-4.6,3.4-7,5c-7.5,5.2-15.3,9.9-23.3,14.2
	c-3.8,2-7.7,3.9-11.6,5.8c-2,0.9-4,1.8-6,2.7c-2.5,1.1,3.2-1.3-1.1,0.5c-1.4,0.5-2.7,1.1-4,1.6c-8.6,3.3-17.5,6.1-26.5,8.5
	c-4.3,1.1-8.6,2.1-13,2.9c-2.4,0.5-4.9,0.9-7.3,1.3l-3,0.5c-0.1,0-4.8,0.7-1.9,0.3c-18.4,2.3-37,2.5-55.4,0.6l-3.4-0.4
	c-0.8-0.1-3.8-0.5-0.8-0.1c-2-0.3-4.1-0.6-6.1-0.9c-4.2-0.7-8.5-1.5-12.7-2.5c-8.5-1.9-17-4.3-25.3-7.1c-3.8-1.3-7.5-2.7-11.3-4.2
	l-3.1-1.2c2.6,1.1,0.4,0.2-0.1,0c-2.2-1-4.4-2-6.6-3c-7.7-3.7-15.3-7.8-22.6-12.3c-7.1-4.3-14-9-20.6-14.1c2.3,1.8-1.4-1.1-2.1-1.7
	c-1.7-1.4-3.4-2.8-5-4.2c-3.3-2.8-6.6-5.7-9.7-8.8c-6-5.7-11.7-11.7-17.1-18c-1.3-1.5-2.5-3-3.8-4.5c-0.5-0.7-3.9-5-2.1-2.6
	c-2.7-3.5-5.2-7-7.7-10.6c-4.7-6.9-9-14-13-21.4c-1.9-3.5-3.7-7-5.4-10.6c-0.9-2-1.9-4-2.8-6c-0.4-0.8-0.7-1.6-1.1-2.4
	c1.2,2.9-0.3-0.7-0.5-1.3c-6.5-16.1-11.2-32.8-14-49.9c-0.3-2-0.7-4-0.9-6.1c0.4,3.1-0.3-2.6-0.4-3.5c-0.5-4.6-0.8-9.2-1.1-13.9
	c-0.4-8.9-0.4-17.7,0.2-26.6c0.3-4.4,0.6-8.8,1.2-13.1c0.1-0.9,0.2-1.8,0.3-2.7c-0.3,2.9-0.1,0.5,0-0.1c0.4-2.7,0.8-5.4,1.3-8.1
	c1.5-8.4,3.5-16.8,5.9-25c2.4-8.1,5.2-16.1,8.5-23.9c-1.2,2.8,1-2.3,1.4-3.1c0.8-1.8,1.7-3.6,2.5-5.4c1.9-4,3.9-7.9,6.1-11.7
	c4-7.3,8.4-14.3,13.2-21.2c1.3-1.8,2.5-3.6,3.8-5.3c0.6-0.8,3.4-4.5,1.6-2.2c2.7-3.4,5.4-6.8,8.3-10.1c5.5-6.2,11.2-12.2,17.3-17.9
	c3-2.8,6.1-5.6,9.3-8.2c1.5-1.3,3-2.5,4.6-3.7l2.1-1.6c-2.5,2,1.2-0.8,1.7-1.2c13.4-9.9,27.8-18.5,43-25.4c1.8-0.8,3.6-1.6,5.4-2.4
	c-2.7,1.2,0,0,0.7-0.3c1-0.4,2.1-0.8,3.1-1.2c4.1-1.6,8.3-3.1,12.6-4.5c8.1-2.6,16.4-4.9,24.7-6.6c4-0.8,8-1.6,12.1-2.2l2.7-0.4
	c4.4-0.7-1.9,0.2,0.8-0.1c2.5-0.3,5-0.6,7.5-0.8c9.3-0.9,18.5-1.2,27.8-1c21.9,0.4,43.6,4.1,64.4,11c9.8,3.1,19.3,7,28.5,11.6
	c7.3,3.6,16.2,2,20.5-5.4c3.9-6.6,1.9-16.9-5.4-20.5C343,40.8,251,43.2,177.2,86.6c-63.1,37.1-109,101.8-121.5,174.1
	c-13.3,75.5,7.8,153,57.5,211.4c48.2,56.4,121,89.1,195.1,88.4c81.9-0.8,158.7-41.8,206-108.4c5.5-7.8,10.6-15.9,15.2-24.3
	c3.9-7.1,1.8-16.4-5.4-20.5C517.2,403.3,507.5,405.5,503.6,412.7L503.6,412.7z"/>
</svg>
